<?xml version="1.0" standalone="no"?>
<!DOCTYPE svg PUBLIC "-//W3C//DTD SVG 20010904//EN"
 "http://www.w3.org/TR/2001/REC-SVG-20010904/DTD/svg10.dtd">
<svg version="1.0" xmlns="http://www.w3.org/2000/svg"
 width="192.000000pt" height="192.000000pt" viewBox="0 0 192.000000 192.000000"
 preserveAspectRatio="xMidYMid meet">

<g transform="translate(0.000000,192.000000) scale(0.100000,-0.100000)"
fill="#000000" stroke="none">
<path d="M1144 1412 c-40 -25 -124 -248 -145 -382 -8 -50 -20 -86 -36 -108
-33 -44 -119 -99 -168 -107 l-40 -7 31 20 c99 63 145 213 91 293 -31 47 -86
65 -147 49 -25 -6 -53 -19 -63 -28 -17 -15 -20 -14 -43 16 -16 20 -34 32 -49
32 -20 0 -28 -11 -54 -79 -43 -112 -69 -208 -91 -346 -27 -163 -26 -196 6
-234 27 -32 55 -40 71 -18 6 6 18 64 27 127 41 274 62 346 118 407 25 27 70
38 97 23 41 -21 17 -155 -35 -202 -10 -9 -35 -20 -54 -25 -47 -12 -54 -51 -14
-82 22 -17 40 -21 108 -21 88 0 137 16 192 63 l30 26 12 -43 c13 -50 32 -62
71 -42 43 23 48 35 53 127 3 70 9 94 31 132 31 52 61 77 95 77 33 0 36 -19 17
-119 -22 -111 -15 -172 22 -201 33 -26 34 -26 110 12 75 36 112 80 120 138 8
55 -10 53 -72 -10 -75 -76 -91 -64 -60 50 8 30 15 81 15 113 0 50 -4 61 -26
82 -54 50 -153 40 -209 -21 -36 -39 -32 -11 15 85 41 85 49 135 29 174 -11 21
-28 37 -39 37 -3 0 -10 -4 -16 -8z"/>
</g>
</svg>
